<?xml version="1.0" ?><!DOCTYPE svg  PUBLIC '-//W3C//DTD SVG 1.1//EN'  'http://www.w3.org/Graphics/SVG/1.1/DTD/svg11.dtd'><svg height="512px" style="enable-background:new 0 0 512 512;" version="1.1" viewBox="0 0 512 512" width="512px" xml:space="preserve" xmlns="http://www.w3.org/2000/svg" xmlns:xlink="http://www.w3.org/1999/xlink"><g id="A_-_168_x2C__building_x2C__office_x2C__tower_x2C__space"><g><rect height="30.456" width="26.75" x="158.424" y="309.462"/><rect height="30.541" width="26.75" x="158.424" y="346.478"/><rect height="30.456" width="26.667" x="191.733" y="198.326"/><rect height="30.541" width="26.75" x="158.424" y="161.225"/><rect height="30.456" width="26.75" x="158.424" y="198.326"/><rect height="30.543" width="26.75" x="158.424" y="235.341"/><rect height="30.459" width="26.75" x="158.424" y="272.443"/><rect height="30.541" width="26.705" x="224.959" y="161.225"/><rect height="30.456" width="26.705" x="224.959" y="198.326"/><rect height="30.456" width="26.667" x="191.733" y="309.462"/><rect height="30.541" width="26.667" x="191.733" y="161.225"/><rect height="30.543" width="26.667" x="191.733" y="235.341"/><rect height="30.459" width="26.667" x="191.733" y="272.443"/><rect height="30.541" width="26.667" x="191.733" y="346.478"/><rect height="30.541" width="26.03" x="125.834" y="161.225"/><rect height="30.456" width="26.03" x="125.834" y="198.326"/><rect height="30.543" width="26.03" x="125.834" y="235.341"/><polygon points="314.818,55.567 270.541,55.567 206.12,55.567 161.842,55.567 161.842,66.379 314.818,66.379   "/><rect height="8.535" width="57.861" x="209.399" y="40.473"/><rect height="30.456" width="26.03" x="125.834" y="309.462"/><rect height="30.541" width="26.03" x="125.834" y="346.478"/><rect height="30.459" width="26.03" x="125.834" y="272.443"/><polygon points="335.183,72.938 318.098,72.938 158.562,72.938 141.478,72.938 141.478,86.447 335.183,86.447   "/><rect height="30.456" width="26.075" x="324.75" y="309.462"/><rect height="30.459" width="26.075" x="324.75" y="272.443"/><rect height="30.541" width="26.075" x="324.75" y="346.478"/><rect height="30.456" width="26.704" x="291.486" y="309.462"/><rect height="30.543" width="26.075" x="324.75" y="235.341"/><rect height="30.541" width="26.704" x="291.486" y="346.478"/><path d="M151.864,120.168c0-1.811,1.468-3.28,3.28-3.28c1.811,0,3.28,1.469,3.28,3.28v34.497h26.75v-34.497    c0-1.811,1.468-3.28,3.28-3.28c1.811,0,3.28,1.469,3.28,3.28v34.497H218.4v-34.497c0-1.811,1.468-3.28,3.28-3.28    c1.811,0,3.28,1.469,3.28,3.28v34.497h26.705v-34.497c0-1.811,1.468-3.28,3.28-3.28c1.811,0,3.28,1.469,3.28,3.28v34.497h26.704    v-34.497c0-1.811,1.467-3.28,3.279-3.28s3.279,1.469,3.279,3.28v34.497h26.704v-34.497c0-1.811,1.468-3.28,3.28-3.28    c1.812,0,3.279,1.469,3.279,3.28v34.497h26.075V93.007h-12.362H138.198h-12.364v61.659h26.03V120.168z"/><rect height="30.456" width="26.075" x="324.75" y="198.326"/><rect height="30.541" width="26.075" x="324.75" y="161.225"/><rect height="30.459" width="26.704" x="291.486" y="272.443"/><rect height="30.456" width="26.705" x="224.959" y="309.462"/><rect height="30.541" width="26.705" x="224.959" y="346.478"/><rect height="30.456" width="26.704" x="258.224" y="198.326"/><rect height="30.541" width="26.704" x="258.224" y="161.225"/><rect height="30.543" width="26.704" x="258.224" y="235.341"/><rect height="30.459" width="26.705" x="224.959" y="272.443"/><rect height="30.543" width="26.705" x="224.959" y="235.341"/><rect height="30.459" width="26.704" x="258.224" y="272.443"/><rect height="30.541" width="26.704" x="291.486" y="161.225"/><rect height="30.543" width="26.704" x="291.486" y="235.341"/><rect height="30.456" width="26.704" x="291.486" y="198.326"/><rect height="30.456" width="26.704" x="258.224" y="309.462"/><rect height="30.541" width="26.704" x="258.224" y="346.478"/><path d="M437.291,450.803H422.02v-13.309c3.547-1.635,6.082-5.822,6.082-10.732c0-6.375-4.201-11.561-9.365-11.561    c-5.143,0-9.327,5.186-9.327,11.561c0,4.905,2.521,9.09,6.048,10.728v-6.766c0-1.812,1.469-3.28,3.279-3.28    c0.001,0,0.001,0,0.002,0c-1.811,0.001-3.278,1.47-3.278,3.28v20.079h-29.026v-16.638c5.555-1.768,9.67-7.886,9.67-15.161    c0-8.699-5.812-15.777-12.954-15.777c-7.139,0-12.948,7.078-12.948,15.777c0,7.276,4.115,13.395,9.668,15.161v-10.019    c0-1.811,1.469-3.279,3.28-3.279c0,0,0.001,0,0.002,0c-1.812,0-3.278,1.469-3.278,3.279v26.656h-29.048v-67.224H125.834v67.224    h-28.83v-16.641c5.531-1.773,9.627-7.887,9.627-15.158c0-8.699-5.792-15.777-12.91-15.777c-7.143,0-12.955,7.078-12.955,15.777    c0,7.277,4.118,13.396,9.675,15.162v-10.02c0-1.811,1.469-3.279,3.28-3.279h0.001c-1.81,0-3.278,1.469-3.278,3.279v26.656H74.708    c-1.811,0-3.28,1.469-3.28,3.279c0,1.812,1.469,3.28,3.28,3.28h362.583c1.812,0,3.28-1.469,3.28-3.28    C440.571,452.271,439.103,450.803,437.291,450.803z M260.516,450.803v-52.215h-18.91v52.215h-6.56v-52.215h-18.901v52.215h-6.56    v-55.495c0-1.811,1.468-3.279,3.28-3.279h25.461h25.469c1.813,0,3.28,1.469,3.28,3.279v55.495H260.516z"/><path d="M385.223,464.968H223.999c-1.811,0-3.28,1.469-3.28,3.28c0,1.811,1.469,3.279,3.28,3.279h161.224    c1.812,0,3.279-1.469,3.279-3.279C388.502,466.437,387.034,464.968,385.223,464.968z"/><path d="M421.857,464.968h-20.154c-1.811,0-3.279,1.469-3.279,3.28c0,1.811,1.469,3.279,3.279,3.279h20.154    c1.812,0,3.28-1.469,3.28-3.279C425.138,466.437,423.669,464.968,421.857,464.968z"/><path d="M154.811,464.544H78.419c-1.812,0-3.28,1.469-3.28,3.28c0,1.811,1.468,3.279,3.28,3.279h76.392    c1.811,0,3.28-1.469,3.28-3.279C158.091,466.013,156.622,464.544,154.811,464.544z"/></g></g><g id="Layer_1"/></svg>