<?xml version="1.0" ?><!DOCTYPE svg  PUBLIC '-//W3C//DTD SVG 1.1//EN'  'http://www.w3.org/Graphics/SVG/1.1/DTD/svg11.dtd'><svg height="512px" style="enable-background:new 0 0 512 512;" version="1.1" viewBox="0 0 512 512" width="512px" xml:space="preserve" xmlns="http://www.w3.org/2000/svg" xmlns:xlink="http://www.w3.org/1999/xlink"><g id="_x35_69_x2C__Defence_x2C__firewall_x2C__protection_x2C__safety_x2C__shield"><g><path d="M306.133,352.411c-1.565,1.351-3.931,1.228-5.31-0.338    c-1.383-1.535-1.229-3.93,0.306-5.311c75.215-66.402,75.121-70.67,72.668-174.219c-0.31-13.323-0.678-28.273-0.924-45.281    c-19.955,0.583-39.847-0.737-59.064-4.728c-19.893-4.113-39.051-11.053-56.795-21.612c-17.898,9.456-36.47,16.362-55.565,20.813    c-18.727,4.391-38.004,6.355-57.65,6.018l-0.095,7.582c-0.369,29.564-0.765,59.22,0.095,88.476    c0.06,2.089-1.569,3.808-3.653,3.868c-2.06,0.063-3.808-1.566-3.871-3.652c-0.86-29.349-0.46-59.096-0.091-88.752l0.154-11.513    c0.06-2.056,1.811-3.683,3.868-3.622c20.292,0.676,40.184-1.229,59.556-5.741c19.095-4.45,37.699-11.481,55.598-21.121    c1.133-0.583,2.58-0.613,3.745,0.123c17.467,10.714,36.471,17.684,56.212,21.766c19.828,4.114,40.461,5.312,61.121,4.452h0.092    c2.088,0,3.775,1.657,3.807,3.714c0.246,18.419,0.643,34.659,0.983,49.026C383.834,279.285,383.925,283.675,306.133,352.411     M281.205,223.904h-42.486h-0.277c-5.405,0.061-10.314,2.302-13.876,5.863c-3.622,3.623-5.864,8.626-5.864,14.152v41.045h80.402    v-43.194c0-4.911-2.025-9.394-5.25-12.617c-3.194-3.192-7.584-5.188-12.435-5.249H281.205z M264.261,180.986h-10.746    c-4.85,0-9.272,1.996-12.466,5.188c-3.19,3.192-5.187,7.613-5.187,12.495v17.682h2.857h42.486h0.309h0.396V198.67    c0-4.882-1.962-9.303-5.155-12.465C273.529,182.982,269.111,180.986,264.261,180.986z M253.515,173.465h10.746    c6.907,0,13.231,2.824,17.772,7.398c4.604,4.574,7.43,10.898,7.43,17.807v19.063c3.685,1.29,6.97,3.377,9.7,6.078    c4.636,4.636,7.493,10.991,7.493,17.959v46.971c0,2.056-1.72,3.776-3.776,3.776h-87.955c-2.084,0-3.776-1.721-3.776-3.776V243.92    c0-7.583,3.103-14.49,8.076-19.494c2.579-2.548,5.65-4.635,9.086-6.048V198.67c0-6.908,2.825-13.232,7.398-17.807    C240.316,176.289,246.608,173.465,253.515,173.465z M263.278,250.551c-1.105-1.136-2.671-1.811-4.391-1.811    c-1.628,0-3.13,0.613-4.235,1.626l-0.154,0.185c-1.105,1.105-1.811,2.672-1.811,4.391c0,1.074,0.274,2.087,0.737,2.978    c0.46,0.829,1.134,1.565,1.934,2.118c1.133,0.645,1.902,1.873,1.902,3.285v4.635h3.253v-4.635c0-1.229,0.614-2.426,1.752-3.162    c0.859-0.553,1.597-1.351,2.088-2.241c0.46-0.86,0.737-1.903,0.737-2.978C265.09,253.223,264.412,251.656,263.278,250.551z     M258.888,241.188c3.776,0,7.213,1.535,9.7,4.021c2.517,2.486,4.054,5.926,4.054,9.732c0,2.332-0.614,4.604-1.688,6.569    c-0.737,1.381-1.72,2.609-2.889,3.653v6.568c0,2.089-1.688,3.777-3.776,3.777h-10.805c-2.088,0-3.776-1.688-3.776-3.777v-6.568    c-1.134-1.044-2.148-2.272-2.885-3.653c-1.074-1.966-1.688-4.237-1.688-6.569c0-3.807,1.534-7.246,4.021-9.732l0.246-0.215    C251.887,242.631,255.235,241.188,258.888,241.188z M463.682,118.852c2.088,0,3.776,1.688,3.776,3.775    c0,2.057-1.688,3.775-3.776,3.775h-36.225c-2.089,0-3.776-1.719-3.776-3.775c0-2.088,1.688-3.775,3.776-3.775H463.682z     M482.226,155.967c2.085,0,3.773,1.719,3.773,3.775c0,2.088-1.688,3.776-3.773,3.776h-54.769c-2.089,0-3.776-1.688-3.776-3.776    c0-2.057,1.688-3.775,3.776-3.775H482.226z M463.682,193.112c2.088,0,3.776,1.688,3.776,3.776s-1.688,3.776-3.776,3.776h-36.225    c-2.089,0-3.776-1.688-3.776-3.776s1.688-3.776,3.776-3.776H463.682z M482.226,230.259c2.085,0,3.773,1.688,3.773,3.776    c0,2.057-1.688,3.775-3.773,3.775h-54.769c-2.089,0-3.776-1.719-3.776-3.775c0-2.088,1.688-3.776,3.776-3.776H482.226z     M463.682,267.374c2.088,0,3.776,1.72,3.776,3.776c0,2.088-1.688,3.775-3.776,3.775h-36.225c-2.089,0-3.776-1.688-3.776-3.775    c0-2.057,1.688-3.776,3.776-3.776H463.682z M101.8,433.856c-2.088,0-3.776-1.689-3.776-3.776s1.688-3.776,3.776-3.776h263.398    c2.088,0,3.776,1.689,3.776,3.776s-1.688,3.776-3.776,3.776H101.8z M256.032,450.219c-2.088,0-3.776-1.688-3.776-3.775    c0-2.089,1.688-3.776,3.776-3.776h182.262c2.088,0,3.776,1.688,3.776,3.776c0,2.087-1.688,3.775-3.776,3.775H256.032z     M386.536,433.856c-2.089,0-3.776-1.689-3.776-3.776s1.688-3.776,3.776-3.776h22.776c2.088,0,3.776,1.689,3.776,3.776    s-1.688,3.776-3.776,3.776H386.536z M91.422,449.574c-2.084,0-3.776-1.688-3.776-3.776c0-2.087,1.691-3.776,3.776-3.776h86.358    c2.088,0,3.776,1.689,3.776,3.776c0,2.088-1.688,3.776-3.776,3.776H91.422z M48.322,126.402c-2.088,0-3.776-1.719-3.776-3.775    c0-2.088,1.688-3.775,3.776-3.775h36.225c2.088,0,3.776,1.688,3.776,3.775c0,2.057-1.688,3.775-3.776,3.775H48.322z     M29.778,163.519c-2.085,0-3.776-1.688-3.776-3.776c0-2.057,1.691-3.775,3.776-3.775h54.769c2.088,0,3.776,1.719,3.776,3.775    c0,2.088-1.688,3.776-3.776,3.776H29.778z M48.322,200.665c-2.088,0-3.776-1.688-3.776-3.776s1.688-3.776,3.776-3.776h36.225    c2.088,0,3.776,1.688,3.776,3.776s-1.688,3.776-3.776,3.776H48.322z M29.778,237.811c-2.085,0-3.776-1.719-3.776-3.775    c0-2.088,1.691-3.776,3.776-3.776h54.769c2.088,0,3.776,1.688,3.776,3.776c0,2.057-1.688,3.775-3.776,3.775H29.778z     M48.322,274.926c-2.088,0-3.776-1.688-3.776-3.775c0-2.057,1.688-3.776,3.776-3.776h36.225c2.088,0,3.776,1.72,3.776,3.776    c0,2.088-1.688,3.775-3.776,3.775H48.322z M406.091,91.468c-29.441,3.93-56.703,4.052-81.231-0.461    c-24.959-4.604-47.122-14.06-65.849-29.226c-22.289,14.49-45.865,24.253-70.702,29.195c-24.342,4.851-49.916,5.096-76.746,0.613    l-0.032,26.647c-0.091,91.085-0.154,135.444,11.297,168.386c10.837,31.006,32.326,52.648,74.261,94.829    c7.675,7.706,16.024,16.118,25.114,25.358h74.289c11.574-12.034,21.738-22.411,30.884-31.744    c38.896-39.693,58.792-59.986,68.737-88.72c10.469-30.3,10.346-70.915,10.101-153.958L406.091,91.468z" style="fill-rule:evenodd;clip-rule:evenodd;"/></g></g><g id="Layer_1"/></svg>